<?xml version="1.0" encoding="UTF-8"?>
<svg xmlns="http://www.w3.org/2000/svg" xmlns:xlink="http://www.w3.org/1999/xlink" viewBox="0 0 240 240" width="240px" height="240px">
<g id="surface153143905">
<path style=" stroke:none;fill-rule:nonzero;fill:rgb(100%,26.274511%,26.274511%);fill-opacity:1;" d="M 40 25 L 210 25 L 190 195 L 125 215 L 55 195 Z M 40 25 "/>
<path style=" stroke:none;fill-rule:nonzero;fill:rgb(77.64706%,19.607843%,19.607843%);fill-opacity:1;" d="M 193.148438 40 L 176.25 183.550781 L 125 199.300781 L 125 40 Z M 193.148438 40 "/>
<path style=" stroke:none;fill-rule:nonzero;fill:rgb(98.039216%,97.647059%,97.254902%);fill-opacity:1;" d="M 125 105 L 130 115 L 125 125 L 78.949219 125 L 83.199219 60 L 125 60 L 130 70 L 125 80 L 105.148438 80 L 103.5 105 Z M 125 105 "/>
<path style=" stroke:none;fill-rule:nonzero;fill:rgb(92.156863%,92.156863%,92.156863%);fill-opacity:1;" d="M 124.5 162.851562 L 125 162.699219 L 130 175 L 125 183.601562 L 124.699219 183.699219 L 83.050781 171.800781 L 80.25 140 L 100.351562 140 L 101.75 156.351562 Z M 124.5 162.851562 "/>
<path style=" stroke:none;fill-rule:nonzero;fill:rgb(100%,100%,100%);fill-opacity:1;" d="M 170.351562 105 L 162.5 172.101562 L 125 183.601562 L 125 162.699219 L 144.148438 156.800781 L 147.851562 125 L 125 125 L 125 105 Z M 170.351562 105 "/>
<path style=" stroke:none;fill-rule:nonzero;fill:rgb(100%,100%,100%);fill-opacity:1;" d="M 174.601562 90 L 154.648438 90 L 153.351562 80 L 125 80 L 125 60 L 170.648438 60 L 171.5 66.300781 Z M 174.601562 90 "/>
</g>
</svg>
