<?xml version="1.0" encoding="UTF-8"?>
<svg xmlns="http://www.w3.org/2000/svg" xmlns:xlink="http://www.w3.org/1999/xlink" viewBox="0 0 128 128" width="128px" height="128px">
<g id="surface157252355">
<path style=" stroke:none;fill-rule:nonzero;fill:rgb(100%,100%,100%);fill-opacity:1;" d="M 76 66 C 76 72.628906 70.628906 78 64 78 C 57.371094 78 52 72.628906 52 66 C 52 59.371094 57.371094 54 64 54 C 70.628906 54 76 59.371094 76 66 Z M 76 66 "/>
<path style=" stroke:none;fill-rule:nonzero;fill:rgb(100%,26.274511%,26.274511%);fill-opacity:1;" d="M 64 80 C 56.28125 80 50 73.71875 50 66 C 50 58.28125 56.28125 52 64 52 C 71.71875 52 78 58.28125 78 66 C 78 73.71875 71.71875 80 64 80 Z M 64 56 C 58.484375 56 54 60.484375 54 66 C 54 71.515625 58.484375 76 64 76 C 69.515625 76 74 71.515625 74 66 C 74 60.484375 69.515625 56 64 56 Z M 64 56 "/>
<path style=" stroke:none;fill-rule:nonzero;fill:rgb(100%,26.274511%,26.274511%);fill-opacity:1;" d="M 64 92 C 30.355469 92 4 80.578125 4 66 C 4 51.421875 30.355469 40 64 40 C 97.644531 40 124 51.421875 124 66 C 124 80.578125 97.644531 92 64 92 Z M 64 44 C 33.644531 44 8 54.074219 8 66 C 8 77.925781 33.644531 88 64 88 C 94.355469 88 120 77.925781 120 66 C 120 54.074219 94.355469 44 64 44 Z M 64 44 "/>
<path style=" stroke:none;fill-rule:nonzero;fill:rgb(100%,26.274511%,26.274511%);fill-opacity:1;" d="M 40.632812 119.652344 C 38.1875 119.652344 35.960938 119.09375 34 117.960938 C 27.703125 114.324219 25.148438 105.378906 26.8125 92.769531 C 28.398438 80.761719 33.609375 66.636719 41.480469 52.996094 C 49.359375 39.359375 58.984375 27.785156 68.59375 20.40625 C 78.683594 12.664062 87.707031 10.402344 94 14.039062 C 100.296875 17.675781 102.851562 26.621094 101.1875 39.230469 C 99.601562 51.238281 94.390625 65.363281 86.519531 79 C 78.640625 92.636719 69.015625 104.210938 59.40625 111.589844 C 52.464844 116.921875 46.027344 119.652344 40.632812 119.652344 Z M 87.367188 16.359375 C 82.898438 16.359375 77.210938 18.835938 71.027344 23.585938 C 61.828125 30.648438 52.566406 41.804688 44.949219 55 C 37.328125 68.195312 32.300781 81.792969 30.78125 93.292969 C 29.363281 104.035156 31.265625 111.761719 36 114.496094 C 40.734375 117.230469 48.375 115.015625 56.972656 108.414062 C 66.171875 101.351562 75.433594 90.195312 83.050781 77 C 90.671875 63.804688 95.699219 50.207031 97.21875 38.707031 C 98.636719 27.964844 96.734375 20.238281 92 17.503906 C 90.671875 16.734375 89.113281 16.359375 87.367188 16.359375 Z M 87.367188 16.359375 "/>
<path style=" stroke:none;fill-rule:nonzero;fill:rgb(100%,26.274511%,26.274511%);fill-opacity:1;" d="M 87.367188 119.652344 C 81.976562 119.652344 75.535156 116.921875 68.59375 111.589844 C 58.984375 104.214844 49.359375 92.636719 41.480469 79 C 33.609375 65.363281 28.398438 51.238281 26.8125 39.230469 C 25.148438 26.621094 27.703125 17.675781 34 14.039062 C 40.300781 10.40625 49.320312 12.667969 59.40625 20.410156 C 69.015625 27.789062 78.640625 39.363281 86.519531 53.003906 C 94.390625 66.640625 99.601562 80.765625 101.1875 92.773438 C 102.851562 105.378906 100.296875 114.324219 94 117.960938 C 92.039062 119.09375 89.808594 119.652344 87.367188 119.652344 Z M 40.632812 16.359375 C 38.886719 16.359375 37.328125 16.734375 36 17.503906 C 31.265625 20.238281 29.363281 27.964844 30.78125 38.707031 C 32.300781 50.207031 37.328125 63.804688 44.949219 77 C 52.566406 90.195312 61.828125 101.351562 71.027344 108.414062 C 79.625 115.015625 87.265625 117.230469 92 114.496094 C 96.734375 111.761719 98.636719 104.035156 97.21875 93.292969 C 95.699219 81.792969 90.671875 68.195312 83.050781 55 C 75.433594 41.804688 66.171875 30.648438 56.972656 23.585938 C 50.792969 18.839844 45.101562 16.359375 40.632812 16.359375 Z M 40.632812 16.359375 "/>
<path style=" stroke:none;fill-rule:nonzero;fill:rgb(100%,26.274511%,26.274511%);fill-opacity:1;" d="M 20.925781 93.945312 C 20.839844 93.945312 20.75 93.9375 20.660156 93.925781 L 16.695312 93.398438 C 15.601562 93.253906 14.828125 92.246094 14.976562 91.152344 C 15.121094 90.054688 16.121094 89.285156 17.222656 89.433594 L 21.1875 89.960938 C 22.285156 90.109375 23.054688 91.113281 22.90625 92.207031 C 22.773438 93.210938 21.914062 93.945312 20.925781 93.945312 Z M 20.925781 93.945312 "/>
<path style=" stroke:none;fill-rule:nonzero;fill:rgb(100%,26.274511%,26.274511%);fill-opacity:1;" d="M 16.386719 103.769531 C 15.316406 103.769531 14.429688 102.917969 14.390625 101.835938 C 14.355469 100.730469 15.21875 99.808594 16.324219 99.773438 L 20.320312 99.636719 C 21.421875 99.5625 22.351562 100.464844 22.386719 101.570312 C 22.425781 102.675781 21.558594 103.597656 20.453125 103.632812 L 16.457031 103.769531 C 16.4375 103.769531 16.410156 103.769531 16.386719 103.769531 Z M 16.386719 103.769531 "/>
<path style=" stroke:none;fill-rule:nonzero;fill:rgb(100%,26.274511%,26.274511%);fill-opacity:1;" d="M 18.019531 114.1875 C 17.160156 114.1875 16.367188 113.632812 16.105469 112.769531 C 15.785156 111.714844 16.378906 110.597656 17.433594 110.273438 L 21.261719 109.105469 C 22.320312 108.773438 23.4375 109.378906 23.757812 110.433594 C 24.078125 111.488281 23.484375 112.609375 22.429688 112.929688 L 18.601562 114.097656 C 18.40625 114.15625 18.210938 114.1875 18.019531 114.1875 Z M 18.019531 114.1875 "/>
<path style=" stroke:none;fill-rule:nonzero;fill:rgb(100%,26.274511%,26.274511%);fill-opacity:1;" d="M 23.105469 123.703125 C 22.542969 123.703125 21.980469 123.46875 21.585938 123.007812 C 20.867188 122.167969 20.960938 120.902344 21.800781 120.1875 L 24.835938 117.578125 C 25.671875 116.863281 26.933594 116.957031 27.65625 117.792969 C 28.375 118.632812 28.28125 119.894531 27.441406 120.613281 L 24.40625 123.21875 C 24.03125 123.542969 23.566406 123.703125 23.105469 123.703125 Z M 23.105469 123.703125 "/>
<path style=" stroke:none;fill-rule:nonzero;fill:rgb(100%,26.274511%,26.274511%);fill-opacity:1;" d="M 111.542969 37.4375 C 111.503906 37.4375 111.464844 37.433594 111.425781 37.433594 L 107.433594 37.203125 C 106.328125 37.140625 105.484375 36.195312 105.550781 35.089844 C 105.613281 33.988281 106.566406 33.148438 107.664062 33.210938 L 111.65625 33.441406 C 112.761719 33.503906 113.601562 34.449219 113.535156 35.550781 C 113.472656 36.613281 112.59375 37.4375 111.542969 37.4375 Z M 111.542969 37.4375 "/>
<path style=" stroke:none;fill-rule:nonzero;fill:rgb(100%,26.274511%,26.274511%);fill-opacity:1;" d="M 107.183594 27.59375 C 106.207031 27.59375 105.355469 26.882812 105.207031 25.890625 C 105.042969 24.796875 105.796875 23.777344 106.886719 23.613281 L 110.84375 23.019531 C 111.941406 22.875 112.957031 23.613281 113.121094 24.703125 C 113.285156 25.792969 112.53125 26.8125 111.4375 26.976562 L 107.480469 27.570312 C 107.378906 27.585938 107.28125 27.59375 107.183594 27.59375 Z M 107.183594 27.59375 "/>
<path style=" stroke:none;fill-rule:nonzero;fill:rgb(100%,26.274511%,26.274511%);fill-opacity:1;" d="M 104.429688 18.671875 C 103.710938 18.671875 103.015625 18.285156 102.65625 17.601562 C 102.140625 16.625 102.523438 15.414062 103.5 14.898438 L 107.042969 13.042969 C 108.019531 12.53125 109.226562 12.90625 109.742188 13.886719 C 110.257812 14.863281 109.875 16.070312 108.898438 16.585938 L 105.355469 18.445312 C 105.058594 18.597656 104.742188 18.671875 104.429688 18.671875 Z M 104.429688 18.671875 "/>
<path style=" stroke:none;fill-rule:nonzero;fill:rgb(100%,26.274511%,26.274511%);fill-opacity:1;" d="M 98.53125 11.839844 C 98.132812 11.839844 97.726562 11.71875 97.375 11.46875 C 96.476562 10.828125 96.265625 9.578125 96.902344 8.679688 L 99.21875 5.414062 C 99.859375 4.515625 101.105469 4.300781 102.011719 4.945312 C 102.910156 5.585938 103.121094 6.832031 102.480469 7.734375 L 100.164062 10.996094 C 99.773438 11.542969 99.15625 11.839844 98.53125 11.839844 Z M 98.53125 11.839844 "/>
</g>
</svg>
